<?xml version="1.0" encoding="UTF-8" standalone="no" ?>
<!DOCTYPE svg PUBLIC "-//W3C//DTD SVG 1.1//EN" "http://www.w3.org/Graphics/SVG/1.1/DTD/svg11.dtd">
<svg xmlns="http://www.w3.org/2000/svg" xmlns:xlink="http://www.w3.org/1999/xlink" version="1.1" width="142" height="162" viewBox="0 0 142 162" xml:space="preserve">
<desc>Created with Fabric.js 3.6.3</desc>
<defs>
</defs>
<g transform="matrix(0.02 6.71 -6.71 0.02 71.45 81.08)"  >
<path style="stroke: none; stroke-width: 1; stroke-dasharray: none; stroke-linecap: butt; stroke-dashoffset: 0; stroke-linejoin: miter; stroke-miterlimit: 4; fill: rgb(255,255,255); fill-rule: nonzero; opacity: 1;"  transform=" translate(-12, -12)" d="m 16.21 11.172 l 4.963 -5.792 c 0.943 -1.293 1.494 -1.828 1.07 -3.94 l -7.367 8.6 a 7.907 7.907 0 0 0 -1.896 5.487 L 9.763 11.87 a 5.775 5.775 0 0 0 -0.947 -0.829 A 9.979 9.979 0 0 0 7 10.051 c 0.213 -0.076 0.43 -0.14 0.649 -0.194 c 0.385 -0.094 0.78 -0.144 1.176 -0.147 c 0.444 0 0.881 0.07 1.3 0.237 c 0.416 0.168 0.82 0.432 1.212 0.858 l 0.216 0.252 l 1.336 -1.129 c -0.01 -0.011 -0.241 -0.283 -0.251 -0.292 a 5.09 5.09 0 0 0 -1.86 -1.308 a 5.233 5.233 0 0 0 -1.953 -0.364 c -0.151 0 -0.299 0.007 -0.446 0.017 c -1.461 0.24 -2.364 1.104 -3.714 1.244 c 0.001 0.006 -4.58 0 -4.581 0.002 c -0.101 0 -0.115 0.144 -0.017 0.163 c 1.202 0.24 3.341 0.699 4.844 1.214 c 1.142 0.529 2.24 1.205 3.106 2.022 c 0.17 0.135 0.317 0.271 0.439 0.405 l 4.283 4.87 c 0.61 0.501 1.395 0.755 3.066 0.767 a 6.197 6.197 0 0 1 -0.695 -1.337 a 6.173 6.173 0 0 1 -0.014 -4.256 a 6.139 6.139 0 0 1 1.114 -1.903 z M 24 22.56 c -1.734 -0.022 -2.489 -0.317 -3.11 -0.888 l -0.962 -1.093 c -0.065 -0.079 -0.13 -0.157 -0.197 -0.234 l 0.011 0.023 l -1.704 -1.937 a 4.794 4.794 0 0 1 -0.905 -4.806 a 4.755 4.755 0 0 1 0.871 -1.482 l 4.208 -4.892 c 0.43 2.179 -0.192 2.666 -1.21 4.09 l -1.668 1.937 a 3.038 3.038 0 0 0 -0.739 1.989 c 0.001 0.741 0.272 1.458 0.761 2.014 L 24 22.56 z" stroke-linecap="round" />
</g>
</svg>